<svg width="116" height="116" viewBox="0 0 116 116" fill="none" xmlns="http://www.w3.org/2000/svg">
<rect width="116" height="116" rx="12" fill="#22292F"/>
<path d="M49.5585 73.296H30.6145L27.0945 82H14.1665L33.9425 37.2H46.4225L66.2625 82H53.0785L49.5585 73.296ZM45.8465 63.952L40.0865 49.616L34.3265 63.952H45.8465ZM80.5845 82.896C77.2992 82.896 74.3125 82.3413 71.6245 81.232C68.9365 80.08 66.7392 78.4373 65.0325 76.304L71.9445 68.112C74.3338 71.2267 76.9152 72.784 79.6885 72.784C81.5232 72.784 82.9098 72.2293 83.8485 71.12C84.8298 70.0107 85.3205 68.3893 85.3205 66.256V46.992H69.8325V37.2H97.8645V65.488C97.8645 71.2907 96.3925 75.6427 93.4485 78.544C90.5472 81.4453 86.2592 82.896 80.5845 82.896Z" fill="white"/>
</svg>
